<?xml version="1.0" encoding="UTF-8"?>
<svg width="1595" height="584" version="1.1" viewBox="0 0 425 150" xmlns="http://www.w3.org/2000/svg">
    <g fill="#742a0d">
        <path d="m55.24 5.28s6.61 4.91 2.27 13.51c0 0 9.15-0.05 10.28 0.09 0 0-1.77-2.24-1.60-4.98s2.44-9.12-3.17-13z"/>
        <path d="m14.79 74.61s-4.35 48.76 37.42 67.47c0 0 7.03 1.66 9.97 6.74 0.71 1.05 0.72 1.03 1.47 0 2.94-5.08 9.97-6.74 9.97-6.74 41.77-18.71 37.42-67.47 37.42-67.47h-96.26z"/>
    </g>
    <g>
        <path fill="#b98068" d="m61.96 18.40c-3.19 0.01-6.20 0.15-8.86 0.35-15.83 0.82-32.16 5.59-43.83 20.53-14.84 21.57 0.38 35.38 4.91 35.72h96.64c4.53-0.34 19.76-14.14 4.91-35.72-11.68-14.95-28-19.72-43.83-20.53-2.66-0.20-5.67-0.33-8.86-0.35v-5.29e-4h-0.54c-2.65e-4 0.01-2.36e-4 0.02-5.29e-4 0.02 0.01-0.01 0 0 0 0-2.65e-4 -0.01-7.94e-4 -0.02 0-0.02-0.18-1.22e-4 -0.36 0-0.54 0z"/>
        <path fill="#8e4326" d="m93.29 75.05s2.96 63.58-43.54 61.04c0 0-11.83 1.18-23.23-15.27 0 0-12.93-18.16-11.81-45.76z"/>
        <path fill="#ba6d51" d="m40.53 85.06s-1.51 22.11 3.40 36.48c0 0 0.66 3.31 5.29 10.96 0 0-23.81-3.55-29.77-47.49z"/>
    </g>
    <g fill="#a3654b">
        <path d="m63.04 18.40c3.19 0.01 6.20 0.15 8.86 0.35 15.83 0.82 32.16 5.59 43.83 20.53 14.84 21.57-0.38 35.38-4.91 35.72h-48.32v-5.10h7.12l1.64-2.10-8.76-11.21v-1.96l8.99-11.51-8.99-11.51v-1.96l7.97-10.20c-2.65-0.15-5.34-0.21-7.97-0.21v-0.84c0.18-1e-4 0.36 0 0.54 0zm8.88 1.14-8.67 11.09 9 11.51 8.99-11.51-8.63-11.04c-0.23-0.02-0.46-0.03-0.70-0.05zm2.33 0.18 7.76 9.93 5.95-7.62c-1.05-0.35-2.07-0.65-3.06-0.91-3.54-0.63-7.10-1.09-10.66-1.40zm14.92 2.73-6.39 8.18 8.76 11.21 8.80-11.26-3.67-4.82c-2.66-1.45-5-2.43-7.50-3.32zm10.07 4.78 1.86 2.38 0.60-0.77c-0.82-0.57-1.64-1.11-2.46-1.61zm3.44 2.31-0.82 1.05 9.03 11.55 1.95-2.50c-3.10-4.16-6.58-7.46-10.16-10.10zm-1.58 2.02-8.80 11.26 9.03 11.55 8.80-11.26zm-19.09 0.05-8.99 11.51 8.76 11.21 8.99-11.51zm31.57 9.04-1.93 2.47 6.33 8.10c-0.71-4.80-2.91-8.34-2.91-8.34-0.48-0.77-0.98-1.51-1.49-2.23zm-22.04 3.15-8.99 11.51 9.03 11.55 8.99-11.51zm19.35 0.29-8.80 11.26 9.51 12.17c5.37-4.42 6.76-9.61 6.59-14.09zm-38.63 0.01-9 11.51 8.76 11.21 9-11.51zm9.53 12.19-9 11.51 1.64 2.10h14.78l1.61-2.06zm19.55 0.04-8.99 11.51 1.61 2.06h14.23c0.90-0.53 1.72-1.08 2.48-1.64zm-29.31 12.45-0.87 1.12h1.75zm19.55 0.04-0.84 1.08h1.69zm-29.61-50.42c-3.19 0.01-6.20 0.15-8.86 0.35-15.83 0.82-32.16 5.59-43.83 20.53-14.84 21.57 0.38 35.38 4.91 35.72h48.32v-5.10h-7.12l-1.64-2.10 8.76-11.21v-1.96l-8.99-11.51 8.99-11.51v-1.96l-7.97-10.20c2.65-0.15 5.34-0.21 7.97-0.21v-0.84c-0.18-1e-4 -0.36 0-0.54 0zm-8.88 1.14 8.67 11.09-9 11.51-8.99-11.51 8.63-11.04c0.23-0.02 0.46-0.03 0.70-0.05zm-2.33 0.18-7.76 9.93-5.95-7.62c1.05-0.35 2.07-0.65 3.06-0.91 3.54-0.63 7.10-1.09 10.66-1.40zm-14.92 2.73 6.39 8.18-8.76 11.21-8.80-11.26 3.67-4.82c2.66-1.45 5-2.43 7.50-3.32zm-10.07 4.78-1.86 2.38-0.60-0.77c0.82-0.57 1.64-1.11 2.46-1.61zm-3.44 2.31 0.82 1.05-9.03 11.55-1.95-2.50c3.10-4.16 6.58-7.46 10.16-10.10zm1.58 2.02 8.80 11.26-9.03 11.55-8.80-11.26zm19.09 0.05 8.99 11.51-8.76 11.21-8.99-11.51zm-31.57 9.04 1.93 2.47-6.33 8.10c0.71-4.80 2.91-8.34 2.91-8.34 0.48-0.77 0.98-1.51 1.49-2.23zm22.04 3.15 8.99 11.51-9.03 11.55-8.99-11.51zm-19.35 0.29 8.80 11.26-9.51 12.17c-5.37-4.42-6.76-9.61-6.59-14.09zm38.63 0.01 9 11.51-8.76 11.21-9-11.51zm-9.53 12.19 9 11.51-1.64 2.10h-14.78l-1.61-2.06zm-19.55 0.04 8.99 11.51-1.61 2.06h-14.23c-0.90-0.53-1.72-1.08-2.48-1.64zm29.31 12.45 0.87 1.12h-1.75zm-19.55 0.04 0.84 1.08h-1.69z"/>
        <path d="m14.62 73.55c0 4.42 3.59 8.01 8.01 8.01s8.01-3.59 8.01-8.01zm16.10 0c0 4.42 3.59 8.01 8.01 8.01s8.01-3.59 8.01-8.01zm16.10 0c0 4.42 3.59 8.01 8.01 8.01s8.01-3.59 8.01-8.01zm16.10 0c0 4.42 3.59 8.01 8.01 8.01s8.01-3.59 8.01-8.01zm16.10 0c0 4.42 3.59 8.01 8.01 8.01s8.01-3.59 8.01-8.01zm16.10 0c0 4.42 3.59 8.01 8.01 8.01s8.01-3.59 8.01-8.01z"/>
    </g>
    <g fill="#742a0d">
        <path d="m173.86 86.51h-19.58l-4.45 14.59h-4.27l16.64-52.20h3.80l16.64 52.20h-4.27zm-18.39-3.84h17.21l-8.61-28.00z"/>
        <path d="m199.17 98.13q4.16 0 6.38-2.33 2.22-2.33 2.40-6.70h3.84q-0.29 5.95-3.80 9.36-3.51 3.37-8.82 3.37-6.92 0-10.47-4.41-3.51-4.45-3.59-13.16v-4.73q0-8.89 3.51-13.41 3.55-4.52 10.51-4.52 5.77 0 9.11 3.66 3.33 3.62 3.55 10.15h-3.84q-0.18-4.80-2.44-7.42-2.26-2.65-6.38-2.65-5.16 0-7.60 3.48-2.40 3.48-2.40 10.69v4.41q0 7.46 2.44 10.86 2.44 3.37 7.60 3.37z"/>
        <path d="m216.01 79.73q0-8.39 3.80-13.27 3.80-4.88 10.36-4.88 6.60 0 10.36 4.80 3.80 4.80 3.84 13.23v4.12q0 8.53-3.84 13.30-3.80 4.77-10.29 4.77t-10.29-4.66q-3.80-4.66-3.94-12.84zm4.02 4.02q0 6.70 2.69 10.54 2.72 3.84 7.53 3.84 4.91 0 7.49-3.69 2.62-3.69 2.65-10.58v-4.12q0-6.70-2.72-10.54-2.72-3.87-7.49-3.87-4.63 0-7.35 3.76-2.72 3.76-2.80 10.36z"/>
        <path d="m266.06 66.04q-1.43-0.25-2.51-0.25-3.30 0-5.56 2.26-2.22 2.26-3.16 6.27v26.78h-3.98v-38.79h3.91l0.07 5.81q2.83-6.53 8.89-6.53 1.58 0 2.40 0.47z"/>
        <path d="m274.23 62.31 0.11 6.17q1.72-3.16 4.37-5.02 2.69-1.86 6.10-1.86 10.15 0 10.40 13.52v25.99h-3.94v-25.56q-0.04-5.20-1.83-7.67-1.79-2.47-5.63-2.47-3.12 0-5.63 2.37-2.47 2.33-3.76 6.42v26.93h-3.98v-38.79z"/>
    </g>
    <g fill="#b98068">
        <path d="m349.72 84.82q-0.57 8.78-4.73 12.91-4.16 4.09-11.51 4.09-7.57 0-11.94-5.70-4.37-5.74-4.41-15.56v-11.33q0-9.86 4.45-15.45 4.48-5.59 12.23-5.59 7.31 0 11.33 4.20 4.02 4.20 4.59 12.87h-4.16q-0.57-7.10-3.37-10.15-2.76-3.05-8.39-3.05-5.92 0-9.21 4.41-3.30 4.41-3.30 12.80v11.19q0 8.32 3.19 12.94 3.19 4.63 9.00 4.63 6.10 0 8.82-3.05 2.72-3.05 3.26-10.15z"/>
        <path d="m381.88 88.27q0-4.37-2.51-6.88-2.47-2.51-9.29-4.80t-10.00-5.13q-4.20-3.69-4.20-9.75 0-5.99 4.12-9.75 4.12-3.76 10.65-3.76 6.67 0 10.90 4.37t4.23 11.26h-4.12q0-5.27-2.98-8.50-2.94-3.26-8.03-3.26-4.95 0-7.82 2.69-2.83 2.65-2.83 6.88 0 3.94 2.69 6.45 2.69 2.51 8.57 4.48 5.88 1.94 8.89 4.05 3.01 2.08 4.45 4.91 1.43 2.83 1.43 6.67 0 6.13-4.16 9.90-4.12 3.73-10.94 3.73-4.59 0-8.39-1.86-3.76-1.90-5.92-5.41-2.12-3.55-2.12-8.35h4.09q0 5.52 3.33 8.68 3.33 3.16 9.00 3.16 4.95 0 7.92-2.65 3.01-2.65 3.01-7.10z"/>
        <path d="m417.23 88.27q0-4.37-2.51-6.88-2.47-2.51-9.29-4.80-6.81-2.29-10.00-5.13-4.20-3.69-4.20-9.75 0-5.99 4.12-9.75 4.12-3.76 10.65-3.76 6.67 0 10.90 4.37 4.23 4.37 4.23 11.26h-4.12q0-5.27-2.98-8.50-2.94-3.26-8.03-3.26-4.95 0-7.82 2.69-2.83 2.65-2.83 6.88 0 3.94 2.69 6.45 2.69 2.51 8.57 4.48 5.88 1.94 8.89 4.05 3.01 2.08 4.45 4.91t1.43 6.67q0 6.13-4.16 9.90-4.12 3.73-10.94 3.73-4.59 0-8.39-1.86-3.76-1.90-5.92-5.41-2.12-3.55-2.12-8.35h4.09q0 5.52 3.33 8.68 3.33 3.16 9.00 3.16 4.95 0 7.92-2.65 3.01-2.65 3.01-7.10z"/>
    </g>
</svg>
