<?xml version="1.0" encoding="UTF-8"?>
<svg width="470" height="584" version="1.1" viewBox="0 0 125 150" xmlns="http://www.w3.org/2000/svg">
    <g fill="#742a0d">
        <path d="m55.24 5.28s6.61 4.91 2.27 13.51c0 0 9.15-0.05 10.28 0.09 0 0-1.77-2.24-1.60-4.98s2.44-9.12-3.17-13z"/>
        <path d="m14.79 74.61s-4.35 48.76 37.42 67.47c0 0 7.03 1.66 9.97 6.74 0.71 1.05 0.72 1.03 1.47 0 2.94-5.08 9.97-6.74 9.97-6.74 41.77-18.71 37.42-67.47 37.42-67.47h-96.26z"/>
    </g>
    <g>
        <path fill="#b98068" d="m61.96 18.40c-3.19 0.01-6.20 0.15-8.86 0.35-15.83 0.82-32.16 5.59-43.83 20.53-14.84 21.57 0.38 35.38 4.91 35.72h96.64c4.53-0.34 19.76-14.14 4.91-35.72-11.68-14.95-28-19.72-43.83-20.53-2.66-0.20-5.67-0.33-8.86-0.35v-5.29e-4h-0.54c-2.65e-4 0.01-2.36e-4 0.02-5.29e-4 0.02 0.01-0.01 0 0 0 0-2.65e-4 -0.01-7.94e-4 -0.02 0-0.02-0.18-1.22e-4 -0.36 0-0.54 0z"/>
        <path fill="#8e4326" d="m93.29 75.05s2.96 63.58-43.54 61.04c0 0-11.83 1.18-23.23-15.27 0 0-12.93-18.16-11.81-45.76z"/>
        <path fill="#ba6d51" d="m40.53 85.06s-1.51 22.11 3.40 36.48c0 0 0.66 3.31 5.29 10.96 0 0-23.81-3.55-29.77-47.49z"/>
    </g>
    <g fill="#a3654b">
        <path d="m63.04 18.40c3.19 0.01 6.20 0.15 8.86 0.35 15.83 0.82 32.16 5.59 43.83 20.53 14.84 21.57-0.38 35.38-4.91 35.72h-48.32v-5.10h7.12l1.64-2.10-8.76-11.21v-1.96l8.99-11.51-8.99-11.51v-1.96l7.97-10.20c-2.65-0.15-5.34-0.21-7.97-0.21v-0.84c0.18-1e-4 0.36 0 0.54 0zm8.88 1.14-8.67 11.09 9 11.51 8.99-11.51-8.63-11.04c-0.23-0.02-0.46-0.03-0.70-0.05zm2.33 0.18 7.76 9.93 5.95-7.62c-1.05-0.35-2.07-0.65-3.06-0.91-3.54-0.63-7.10-1.09-10.66-1.40zm14.92 2.73-6.39 8.18 8.76 11.21 8.80-11.26-3.67-4.82c-2.66-1.45-5-2.43-7.50-3.32zm10.07 4.78 1.86 2.38 0.60-0.77c-0.82-0.57-1.64-1.11-2.46-1.61zm3.44 2.31-0.82 1.05 9.03 11.55 1.95-2.50c-3.10-4.16-6.58-7.46-10.16-10.10zm-1.58 2.02-8.80 11.26 9.03 11.55 8.80-11.26zm-19.09 0.05-8.99 11.51 8.76 11.21 8.99-11.51zm31.57 9.04-1.93 2.47 6.33 8.10c-0.71-4.80-2.91-8.34-2.91-8.34-0.48-0.77-0.98-1.51-1.49-2.23zm-22.04 3.15-8.99 11.51 9.03 11.55 8.99-11.51zm19.35 0.29-8.80 11.26 9.51 12.17c5.37-4.42 6.76-9.61 6.59-14.09zm-38.63 0.01-9 11.51 8.76 11.21 9-11.51zm9.53 12.19-9 11.51 1.64 2.10h14.78l1.61-2.06zm19.55 0.04-8.99 11.51 1.61 2.06h14.23c0.90-0.53 1.72-1.08 2.48-1.64zm-29.31 12.45-0.87 1.12h1.75zm19.55 0.04-0.84 1.08h1.69zm-29.61-50.42c-3.19 0.01-6.20 0.15-8.86 0.35-15.83 0.82-32.16 5.59-43.83 20.53-14.84 21.57 0.38 35.38 4.91 35.72h48.32v-5.10h-7.12l-1.64-2.10 8.76-11.21v-1.96l-8.99-11.51 8.99-11.51v-1.96l-7.97-10.20c2.65-0.15 5.34-0.21 7.97-0.21v-0.84c-0.18-1e-4 -0.36 0-0.54 0zm-8.88 1.14 8.67 11.09-9 11.51-8.99-11.51 8.63-11.04c0.23-0.02 0.46-0.03 0.70-0.05zm-2.33 0.18-7.76 9.93-5.95-7.62c1.05-0.35 2.07-0.65 3.06-0.91 3.54-0.63 7.10-1.09 10.66-1.40zm-14.92 2.73 6.39 8.18-8.76 11.21-8.80-11.26 3.67-4.82c2.66-1.45 5-2.43 7.50-3.32zm-10.07 4.78-1.86 2.38-0.60-0.77c0.82-0.57 1.64-1.11 2.46-1.61zm-3.44 2.31 0.82 1.05-9.03 11.55-1.95-2.50c3.10-4.16 6.58-7.46 10.16-10.10zm1.58 2.02 8.80 11.26-9.03 11.55-8.80-11.26zm19.09 0.05 8.99 11.51-8.76 11.21-8.99-11.51zm-31.57 9.04 1.93 2.47-6.33 8.10c0.71-4.80 2.91-8.34 2.91-8.34 0.48-0.77 0.98-1.51 1.49-2.23zm22.04 3.15 8.99 11.51-9.03 11.55-8.99-11.51zm-19.35 0.29 8.80 11.26-9.51 12.17c-5.37-4.42-6.76-9.61-6.59-14.09zm38.63 0.01 9 11.51-8.76 11.21-9-11.51zm-9.53 12.19 9 11.51-1.64 2.10h-14.78l-1.61-2.06zm-19.55 0.04 8.99 11.51-1.61 2.06h-14.23c-0.90-0.53-1.72-1.08-2.48-1.64zm29.31 12.45 0.87 1.12h-1.75zm-19.55 0.04 0.84 1.08h-1.69z"/>
        <path d="m14.62 73.55c0 4.42 3.59 8.01 8.01 8.01s8.01-3.59 8.01-8.01zm16.10 0c0 4.42 3.59 8.01 8.01 8.01s8.01-3.59 8.01-8.01zm16.10 0c0 4.42 3.59 8.01 8.01 8.01s8.01-3.59 8.01-8.01zm16.10 0c0 4.42 3.59 8.01 8.01 8.01s8.01-3.59 8.01-8.01zm16.10 0c0 4.42 3.59 8.01 8.01 8.01s8.01-3.59 8.01-8.01zm16.10 0c0 4.42 3.59 8.01 8.01 8.01s8.01-3.59 8.01-8.01z"/>
    </g>
</svg>
